<?xml version="1.0" standalone="no"?>
<!DOCTYPE svg PUBLIC "-//W3C//DTD SVG 20010904//EN"
 "http://www.w3.org/TR/2001/REC-SVG-20010904/DTD/svg10.dtd">
<svg version="1.0" xmlns="http://www.w3.org/2000/svg"
 width="5000.000000pt" height="5000.000000pt" viewBox="0 0 5000.000000 5000.000000"
 preserveAspectRatio="xMidYMid meet">
<metadata>
Created by potrace 1.14, written by Peter Selinger 2001-2017
</metadata>
<g transform="translate(0.000000,5000.000000) scale(0.100000,-0.100000)"
fill="#000000" stroke="none">
<path d="M0 26715 l0 -18905 1720 0 1720 0 0 -1720 0 -1720 23280 0 23280 0 0
18905 0 18905 -1720 0 -1720 0 0 1720 0 1720 -23280 0 -23280 0 0 -18905z
m45618 -3 l2 -17962 -22337 2 -22338 3 -3 17950 c-1 9873 0 17956 3 17963 3
10 4476 12 22337 10 l22333 -3 3 -17963z"/>
<path d="M8600 26855 l0 -10165 1360 0 1360 0 0 3739 0 3740 1788 4 c1007 3
1812 9 1844 14 l58 9 2387 -3750 2388 -3751 1588 -3 c873 -1 1587 0 1587 3 0
3 -4265 6827 -5061 8097 l-49 78 111 56 c1032 517 1808 1236 2344 2173 478
836 786 1827 884 2851 47 489 45 1118 -5 1585 -83 778 -273 1453 -581 2070
-565 1129 -1492 2030 -2683 2603 -976 470 -2110 742 -3345 802 -131 6 -1285
10 -3092 10 l-2883 0 0 -10165z m6215 7545 c517 -31 964 -126 1367 -291 571
-235 1145 -689 1512 -1198 335 -464 588 -1113 680 -1746 59 -403 44 -953 -35
-1355 -125 -635 -385 -1196 -800 -1725 -419 -536 -946 -876 -1673 -1081 -291
-82 -580 -131 -1041 -176 -84 -8 -627 -12 -1812 -15 l-1693 -4 0 3801 0 3800
1663 0 c985 0 1731 -4 1832 -10z"/>
<path d="M30995 31814 c-399 -31 -736 -76 -1054 -139 -630 -127 -1308 -362
-1886 -655 -1797 -911 -3146 -2473 -3781 -4375 -187 -561 -305 -1135 -360
-1760 -32 -356 -19 -1064 26 -1470 157 -1402 715 -2754 1594 -3855 317 -398
768 -857 1114 -1134 l73 -59 -53 -31 c-29 -18 -662 -392 -1407 -832 l-1354
-799 3869 -3 c4009 -3 4055 -3 4464 38 1491 150 2933 763 4085 1735 1311 1106
2197 2593 2544 4265 54 264 104 615 133 940 17 187 16 879 0 1100 -77 1008
-316 1908 -741 2785 -481 993 -1173 1863 -2056 2586 -315 258 -759 553 -1160
772 -799 435 -1762 742 -2660 847 -326 38 -400 42 -865 45 -261 1 -497 1 -525
-1z m1637 -4941 c56 -17 124 -79 153 -138 16 -31 20 -60 20 -130 l0 -90 -1081
-2370 c-1171 -2566 -1107 -2435 -1211 -2486 -70 -33 -180 -33 -247 1 -107 54
-175 174 -163 286 8 81 2154 4789 2212 4852 84 93 186 117 317 75z m-3545
-119 c98 -47 156 -142 156 -254 0 -128 61 -60 -1081 -1202 l-1037 -1038 1036
-1037 c677 -679 1042 -1051 1053 -1075 109 -242 -108 -485 -360 -402 -45 15
-144 111 -1212 1178 -904 903 -1168 1172 -1187 1210 -20 39 -25 65 -25 120 0
139 -77 53 1203 1332 634 634 1166 1159 1184 1168 84 42 184 42 270 0z m4941
24 c26 -6 63 -21 82 -34 19 -12 556 -543 1192 -1181 l1157 -1158 16 -59 c21
-73 16 -146 -15 -212 -18 -39 -243 -270 -1169 -1197 -1272 -1274 -1198 -1207
-1331 -1207 -113 0 -207 58 -263 164 -32 60 -31 183 2 246 16 31 336 358 1059
1082 l1037 1038 -1040 1039 c-919 919 -1043 1046 -1062 1093 -41 98 -23 211
47 291 82 92 175 123 288 95z"/>
</g>
</svg>
